<svg xmlns="http://www.w3.org/2000/svg" viewBox="0 0 512 512">
  <defs>
    <linearGradient id="grad" x1="0%" y1="0%" x2="100%" y2="100%">
      <stop offset="0%" style="stop-color:#6b9b7a;stop-opacity:1" />
      <stop offset="100%" style="stop-color:#5b8a72;stop-opacity:1" />
    </linearGradient>
  </defs>
  <rect width="512" height="512" rx="96" fill="url(#grad)"/>
  <g transform="translate(256, 256)">
    <!-- Brain/Mind symbol -->
    <path d="M-60,-80 C-90,-80 -110,-50 -110,-20 C-110,10 -90,35 -60,40 C-60,60 -40,80 -10,80 C20,80 40,60 40,35 C70,35 90,15 90,-15 C90,-45 70,-65 40,-70 C40,-95 20,-110 -10,-110 C-40,-110 -60,-95 -60,-80"
          fill="none" stroke="white" stroke-width="12" stroke-linecap="round" stroke-linejoin="round"/>
    <!-- Heart symbol in center -->
    <path d="M0,30 C-15,15 -30,0 -30,-15 C-30,-30 -20,-40 -5,-40 C5,-40 10,-35 15,-25 C20,-35 25,-40 35,-40 C50,-40 60,-30 60,-15 C60,0 45,15 30,30 L15,45 Z"
          transform="translate(-15, 10) scale(0.6)"
          fill="white" opacity="0.9"/>
  </g>
</svg>